<svg xmlns="http://www.w3.org/2000/svg" width="314.874" height="112.651" viewBox="0 0 314.874 112.651"><g transform="translate(-31.192 -267.72)"><path d="M.361-79.637a5.168,5.168,0,0,1-.108,1.084,2.377,2.377,0,0,0,.036,1.084,7.266,7.266,0,0,0-3.107,3.613A5.173,5.173,0,0,0-4.7-72.3a22.589,22.589,0,0,0-1.337,2.023Q-6.648-69.23-7.3-68.255a5.359,5.359,0,0,1-1.734,1.626v1.59q-.578-.145-.759.108a1.183,1.183,0,0,1-.542.4q-1.445,2.746-2.963,5.456A21.1,21.1,0,0,1-17.055-54.2q-.578,1.518-1.3,2.963t-1.518,2.891q-.795,1.445-1.518,2.891a17.149,17.149,0,0,0-1.156,2.963A16.055,16.055,0,0,0-25-39.132q-1.012,1.843-1.915,3.686T-28.87-31.8a17.63,17.63,0,0,1-2.493,3.324,1.583,1.583,0,0,1-.217,1.084,1.661,1.661,0,0,0-.289.939,6.272,6.272,0,0,0,1.626,3.722,35.636,35.636,0,0,0,3.866,4.119q2.24,2.06,4.48,3.794t3.469,2.674A30.658,30.658,0,0,0-15.1-13.767a8.024,8.024,0,0,1,3.469-.976,4.46,4.46,0,0,1,1.626,1.337,3.136,3.136,0,0,1,.614,1.915,5.479,5.479,0,0,1-1.012,3.144,10.369,10.369,0,0,1-2.24,2.421q-1.156.217-2.312.361a18.626,18.626,0,0,1-2.312.145,22.649,22.649,0,0,1-4.589-.47q-2.276-.47-4.517-1.048a16.5,16.5,0,0,0-2.71-2.782,12.781,12.781,0,0,0-3.288-1.915,3.2,3.2,0,0,0-.434-1.445,5.148,5.148,0,0,0-.867-1.048,6.433,6.433,0,0,0-1.12-.831,12.818,12.818,0,0,1-1.192-.795,4.623,4.623,0,0,0-1.3.614,4.623,4.623,0,0,1-1.3.614,25.49,25.49,0,0,1-3.686,6.215,2.457,2.457,0,0,1-.47,1.987A11.454,11.454,0,0,1-44.3-4.914a11.069,11.069,0,0,1-1.337,3.758A25.624,25.624,0,0,1-47.912,2.1l.072.578a.766.766,0,0,1-.181.506.924.924,0,0,0-.108.723,11.969,11.969,0,0,0-1.807,3q-.723,1.7-1.337,3.5t-1.156,3.613q-.542,1.807-1.192,3.4a3.708,3.708,0,0,1,.289,1.518,8.87,8.87,0,0,1-.145,1.59,8.87,8.87,0,0,0-.145,1.59,3.773,3.773,0,0,0,.217,1.265,2.226,2.226,0,0,0,.795,1.048,3.186,3.186,0,0,1,2.24-.795,5.628,5.628,0,0,1,1.554.217,6.654,6.654,0,0,1,1.409.578,2.329,2.329,0,0,1,.289,1.012,1.646,1.646,0,0,1-.253.9,8.269,8.269,0,0,1-.578.795q-.325.4-.65.759a1.6,1.6,0,0,0-.4.867,25.207,25.207,0,0,0-3.288.506,14.714,14.714,0,0,0-3.144,1.084,3.829,3.829,0,0,1-1.554-.614,4.776,4.776,0,0,0-1.554-.687,10.376,10.376,0,0,1-1.481-2.674,13.451,13.451,0,0,0-1.409-2.746,12.709,12.709,0,0,1,.434-3.288q.434-1.626.9-3.216t.831-3.216a10.769,10.769,0,0,0,.217-3.288A2.723,2.723,0,0,0-57.885,9.5,7.3,7.3,0,0,0-57.2,7.841q.253-.9.47-1.807a11.811,11.811,0,0,1,.506-1.626A3.32,3.32,0,0,0-55.03,3.144a3.32,3.32,0,0,1,1.192-1.265.8.8,0,0,0-.036-.253.8.8,0,0,1-.036-.253.391.391,0,0,0-.145-.181q-.072-.036-.072-.181a.8.8,0,0,0-.036-.253.329.329,0,0,1,.036-.253l.723-.939a12.246,12.246,0,0,0,1.518-2.421q.506-1.12,1.156-2.565a18.847,18.847,0,0,1,1.445-2.746q.867-1.373,1.662-2.746,1.879-3.4,3.649-6.757t3.794-6.685a3.547,3.547,0,0,1-.939-1.048q-.361-.614-.687-1.265t-.687-1.265A3.221,3.221,0,0,0-43.5-28.979a82.668,82.668,0,0,0-3.433-7.769q-1.915-3.794-3.722-7.552-.65-1.373-1.192-2.782a17.778,17.778,0,0,0-1.265-2.638q-.217-.361-.506-.289a.463.463,0,0,1-.506-.217q-.578-1.662-1.012-2.963l-1.084-3.252a3.064,3.064,0,0,1,1.3-2.1,4.313,4.313,0,0,1,2.385-.65,8.211,8.211,0,0,1,2.313.361A15.844,15.844,0,0,1-49-57.271a9.2,9.2,0,0,0,1.373,1.554v1.879q2.1,4.264,3.938,8.527t4.011,8.527a2.391,2.391,0,0,1,1.3.65,10.1,10.1,0,0,1,.939,1.084,13.456,13.456,0,0,0,.9,1.084,1.971,1.971,0,0,0,1.337.578,3.325,3.325,0,0,0,.867-.976q.578-.831,1.192-1.807t1.084-1.915a3.679,3.679,0,0,0,.47-1.3v-.506a75.825,75.825,0,0,0,8.021-13.947,3.06,3.06,0,0,0,1.156-.976q.434-.614.831-1.3t.831-1.337a3.871,3.871,0,0,1,1.084-1.084A9.658,9.658,0,0,1-18.5-61.354q.795-1.3,1.662-2.6t1.662-2.638a12.023,12.023,0,0,0,1.229-2.854,2.624,2.624,0,0,0,1.265-.939,9.912,9.912,0,0,0,.831-1.373,12.757,12.757,0,0,1,.795-1.373,2.423,2.423,0,0,1,1.229-.939,7.891,7.891,0,0,1,1.951-3.9,9.217,9.217,0,0,1,3.758-2.312l.289-.795a3.746,3.746,0,0,0,1.012.253q.723.108,1.409.217a5.7,5.7,0,0,1,1.229.325Q.361-80.07.361-79.637ZM67.279-16.549a5.089,5.089,0,0,1-.47,2.349q-.47.9-1.048,2.06a.8.8,0,0,0-.361-.072,1.516,1.516,0,0,0-.795.217,5.056,5.056,0,0,1-.723.361q-2.1,2.313-4.3,4.48a28.041,28.041,0,0,1-4.878,3.83q-.723.434-1.445.831t-1.518.759q-.289.145-.542.253a2.913,2.913,0,0,0-.47.253,4.038,4.038,0,0,0-1.048.939q-.542.65-1.229,1.337A7.46,7.46,0,0,1,46.973,2.2a2.894,2.894,0,0,1-1.734.4,3.737,3.737,0,0,0-1.012.939A10.854,10.854,0,0,1,43.215,4.7a23.635,23.635,0,0,0-5.673,2.854q-2.565,1.771-5.312,3.433a18.32,18.32,0,0,1-3.324,1.734,3.794,3.794,0,0,1-.831.217,7.966,7.966,0,0,0-.976.217q-2.385.578-4.806.939a33,33,0,0,1-4.878.361,23.475,23.475,0,0,1-5.854-.723.291.291,0,0,0-.145-.289q-.145-.072-.325-.145a1.414,1.414,0,0,1-.325-.181q-.145-.108,0-.4a7.091,7.091,0,0,1-2.782-.795A3.239,3.239,0,0,1,6.432,9.611a1.29,1.29,0,0,0-.361.361.447.447,0,0,1-.506.145,19.959,19.959,0,0,0-2.24-2.674A7.456,7.456,0,0,1,1.518,4.48a2.642,2.642,0,0,1-.181-.687q-.036-.325-.108-.687A1.319,1.319,0,0,0-.072,2.1a1.609,1.609,0,0,0,.145-.723A2.633,2.633,0,0,0,.036.939,2.633,2.633,0,0,1,0,.506,1.394,1.394,0,0,1,.217-.217,14.7,14.7,0,0,1-.795-3.5a19.166,19.166,0,0,1-.289-3.36q0-2.24.217-4.444t.217-4.444a8.659,8.659,0,0,0,.687-2.023,4.037,4.037,0,0,1,.9-1.879q-.072-.434-.289-.47t-.217-.4a8.953,8.953,0,0,1,.506-2.818,9.764,9.764,0,0,0,.506-3.107,1.648,1.648,0,0,0,.831-1.084,2.009,2.009,0,0,1,.759-1.156v-.361a9.513,9.513,0,0,1,.253-2.168q.253-1.084.506-2.132t.434-2.1a8.514,8.514,0,0,0,.108-2.06,5.489,5.489,0,0,0,.4-.831q.253-.614.506-1.3t.434-1.337a4.033,4.033,0,0,0,.181-.939,2.122,2.122,0,0,0-.145-.795,2.122,2.122,0,0,1-.145-.795,3.817,3.817,0,0,1,.217-1.048q.217-.687.361-1.12.289-1.229.542-2.565t.47-2.565q.65-3.975.939-7.985t.361-8.058q1.012-.578,2.132-1.084a5.643,5.643,0,0,1,2.349-.506,3.676,3.676,0,0,1,.723.072,4.12,4.12,0,0,1,.723.217,5.232,5.232,0,0,0,1.156,2.313,10.021,10.021,0,0,1,1.445,2.1,10.142,10.142,0,0,0-.578,2.385L16.188-58.9a20.128,20.128,0,0,1-.289,2.421,9.289,9.289,0,0,1-.723,2.276,1.933,1.933,0,0,1,.145.723v.723A10.312,10.312,0,0,1,15.14-50.8q-.181.939-.4,1.915t-.361,1.915a6.143,6.143,0,0,0,0,1.879,2.127,2.127,0,0,1-.434.542.91.91,0,0,0-.289.542l-.145,1.373q-.145.795-.253,1.554t-.253,1.554q-.506,2.168-1.12,4.336a16.356,16.356,0,0,0-.614,4.48v.434a8.17,8.17,0,0,0-1.012,2.493,7.673,7.673,0,0,0-.217,2.71q-.795,2.1-1.518,4.119A12.37,12.37,0,0,0,7.8-16.766q0,.361.036.759a7.188,7.188,0,0,0,.108.759,10.629,10.629,0,0,0-.723,2.927q-.145,1.481-.145,2.927,0,1.012.108,2.349T7.552-4.3q.253,1.409.614,2.71a10.1,10.1,0,0,0,.795,2.1,12.25,12.25,0,0,0,4.372,4.228,16.008,16.008,0,0,0,5.745,1.987,8.847,8.847,0,0,1,1.987-.506,15.415,15.415,0,0,1,2.132,0,11.081,11.081,0,0,1,2.349-.867q1.192-.289,2.421-.65.361-.145.759-.289a6.571,6.571,0,0,0,.687-.289,2.242,2.242,0,0,0,.795-.65q.434-.506.795-.867a13.787,13.787,0,0,0,2.891-1.192Q35.266.65,36.566-.145l2.674-1.59a19.891,19.891,0,0,1,2.891-1.373.99.99,0,0,0,.687-.614,5.539,5.539,0,0,1,.4-.976.589.589,0,0,0,.434.145,1.366,1.366,0,0,0,1.229-.542,10.88,10.88,0,0,1,.867-1.12,6.8,6.8,0,0,0,1.807-.542,2.655,2.655,0,0,0,1.3-1.265,8.521,8.521,0,0,0,3.18-1.3,30.443,30.443,0,0,0,2.674-2.06q1.3-1.12,2.6-2.168a11.18,11.18,0,0,1,2.963-1.7,2.46,2.46,0,0,0,.289-.65,5.124,5.124,0,0,1,.217-.65,3.982,3.982,0,0,0,1.951-.687q.723-.542,1.662-1.12A3.487,3.487,0,0,1,67.279-16.549Z" transform="translate(187.5 349.5)" fill="orange" stroke="orange" stroke-width="1"/><path d="M-147.628-14.62v5.44a2.583,2.583,0,0,0,.935,2.142,3.8,3.8,0,0,0,2.448.748,3.908,3.908,0,0,0,2.193-.476,3.64,3.64,0,0,0,1.139-1.394,1.371,1.371,0,0,1,1.207-.918h7.344a.72.72,0,0,1,.527.221.719.719,0,0,1,.221.527,7.618,7.618,0,0,1-2.992,5.78,11.336,11.336,0,0,1-3.978,2.091,19.148,19.148,0,0,1-5.848.8A17.39,17.39,0,0,1-150.569-.7a9.673,9.673,0,0,1-4.5-3.4,9.53,9.53,0,0,1-1.734-5.8v-4.012a9.606,9.606,0,0,1,1.734-5.814q3.264-4.42,10.914-4.42a18.151,18.151,0,0,1,5.576.8,11.336,11.336,0,0,1,3.978,2.091,7.618,7.618,0,0,1,2.992,5.78.72.72,0,0,1-.221.527.72.72,0,0,1-.527.221h-7.344a1.371,1.371,0,0,1-1.207-.918,3.64,3.64,0,0,0-1.139-1.394,3.908,3.908,0,0,0-2.193-.476,3.8,3.8,0,0,0-2.448.748A2.583,2.583,0,0,0-147.628-14.62Zm44.676.646v4.148a9.7,9.7,0,0,1-1.7,5.848,9.207,9.207,0,0,1-4.454,3.332A19.277,19.277,0,0,1-115.6.34a19.277,19.277,0,0,1-6.494-.986,9.207,9.207,0,0,1-4.454-3.332,9.824,9.824,0,0,1-1.7-5.916v-4.012q0-5.134,3.519-7.684a15.19,15.19,0,0,1,9.129-2.55,15.19,15.19,0,0,1,9.129,2.55Q-102.952-19.04-102.952-13.974Zm-16.116-.646v5.44a2.583,2.583,0,0,0,.935,2.142,3.943,3.943,0,0,0,2.533.748,3.882,3.882,0,0,0,2.533-.765,2.632,2.632,0,0,0,.935-2.159v-5.372a2.632,2.632,0,0,0-.935-2.159,3.882,3.882,0,0,0-2.533-.765,3.943,3.943,0,0,0-2.533.748A2.583,2.583,0,0,0-119.068-14.62Zm21.42-9.18H-86.8a19.277,19.277,0,0,1,6.494.986,9.207,9.207,0,0,1,4.454,3.332,9.705,9.705,0,0,1,1.7,5.848v3.468q0,5.44-3.672,7.922Q-81.192,0-86.8,0H-97.648a.882.882,0,0,1-.646-.272.883.883,0,0,1-.272-.646V-22.882a.883.883,0,0,1,.272-.646A.882.882,0,0,1-97.648-23.8Zm7.922,6.63V-6.63h3.094A3.882,3.882,0,0,0-84.1-7.395a2.632,2.632,0,0,0,.935-2.159v-4.692A2.632,2.632,0,0,0-84.1-16.4a3.882,3.882,0,0,0-2.533-.765ZM-60.35-6.63h13.566a.883.883,0,0,1,.646.272.883.883,0,0,1,.272.646V-.918a.883.883,0,0,1-.272.646A.883.883,0,0,1-46.784,0H-68.272a.882.882,0,0,1-.646-.272.883.883,0,0,1-.272-.646V-22.882a.883.883,0,0,1,.272-.646.882.882,0,0,1,.646-.272h21.148a.883.883,0,0,1,.646.272.883.883,0,0,1,.272.646v4.794a.883.883,0,0,1-.272.646.883.883,0,0,1-.646.272H-60.35v2.142h11.356a.883.883,0,0,1,.646.272.883.883,0,0,1,.272.646v4.42a.883.883,0,0,1-.272.646.883.883,0,0,1-.646.272H-60.35Zm44.4-.85q0,7.48-9.588,7.48H-39.542a.883.883,0,0,1-.646-.272.883.883,0,0,1-.272-.646V-22.882a.883.883,0,0,1,.272-.646.883.883,0,0,1,.646-.272h13.668q4.828,0,7.123,1.751a6.23,6.23,0,0,1,2.3,5.287v.1a4.455,4.455,0,0,1-.884,2.788,3.944,3.944,0,0,1-1.836,1.462A4.329,4.329,0,0,1-16.9-10.625,5.4,5.4,0,0,1-15.946-7.48ZM-31.62-9.18v3.332h4.93a1.367,1.367,0,0,0,1.173-.527,1.922,1.922,0,0,0,.391-1.173v-.034A1.63,1.63,0,0,0-25.551-8.7,1.451,1.451,0,0,0-26.69-9.18Zm5.576-6.154a1.855,1.855,0,0,0,.374-1.122,1.625,1.625,0,0,0-.357-1.054,1.255,1.255,0,0,0-1.037-.442H-31.62v3.094h4.556A1.171,1.171,0,0,0-26.044-15.334ZM13.5-1.054a.848.848,0,0,1,.068.374.651.651,0,0,1-.221.459A.719.719,0,0,1,12.818,0H5.1A1.453,1.453,0,0,1,3.672-.85L.68-7.582H-2.176V-.918a.883.883,0,0,1-.272.646A.883.883,0,0,1-3.094,0h-7.344a.883.883,0,0,1-.646-.272.883.883,0,0,1-.272-.646V-22.882a.883.883,0,0,1,.272-.646.883.883,0,0,1,.646-.272H2.788a11.364,11.364,0,0,1,7.378,2.21,7.34,7.34,0,0,1,2.72,6.018,7.158,7.158,0,0,1-3.57,6.7ZM-2.176-17.476v3.6h4.25a1.416,1.416,0,0,0,1.156-.493,1.881,1.881,0,0,0,.408-1.241,2.232,2.232,0,0,0-.391-1.309,1.335,1.335,0,0,0-1.173-.561ZM26.35-6.63H39.916a.883.883,0,0,1,.646.272.883.883,0,0,1,.272.646V-.918a.883.883,0,0,1-.272.646A.883.883,0,0,1,39.916,0H18.428a.883.883,0,0,1-.646-.272.883.883,0,0,1-.272-.646V-22.882a.883.883,0,0,1,.272-.646.883.883,0,0,1,.646-.272H39.576a.883.883,0,0,1,.646.272.883.883,0,0,1,.272.646v4.794a.883.883,0,0,1-.272.646.883.883,0,0,1-.646.272H26.35v2.142H37.706a.883.883,0,0,1,.646.272.883.883,0,0,1,.272.646v4.42a.883.883,0,0,1-.272.646.883.883,0,0,1-.646.272H26.35ZM51.374,0H44.948a.719.719,0,0,1-.527-.221A.625.625,0,0,1,44.2-.646a1.031,1.031,0,0,1,.034-.306l7.412-21.726a1.424,1.424,0,0,1,1.53-1.122h9.452a1.424,1.424,0,0,1,1.53,1.122L71.57-.952a1.031,1.031,0,0,1,.034.306.625.625,0,0,1-.221.425A.719.719,0,0,1,70.856,0H64.43A1.563,1.563,0,0,1,62.9-1.156l-.85-2.38h-8.3l-.85,2.38A1.563,1.563,0,0,1,51.374,0Zm8.942-10.166L57.9-17.238l-2.414,7.072ZM100.742-1.19a.838.838,0,0,1,.136.476.683.683,0,0,1-.221.493A.719.719,0,0,1,100.13,0H91.358a1.49,1.49,0,0,1-1.224-.544l-5.916-7.31V-.918a.883.883,0,0,1-.272.646A.883.883,0,0,1,83.3,0h-7a.882.882,0,0,1-.646-.272.883.883,0,0,1-.272-.646V-22.882a.883.883,0,0,1,.272-.646A.882.882,0,0,1,76.3-23.8h7a.883.883,0,0,1,.646.272.883.883,0,0,1,.272.646v6.392l5.372-6.732a1.612,1.612,0,0,1,1.258-.578h8.194a.719.719,0,0,1,.527.221.7.7,0,0,1,.221.51.745.745,0,0,1-.17.493L91.562-12.75ZM113.05-6.63h13.566a.883.883,0,0,1,.646.272.883.883,0,0,1,.272.646V-.918a.883.883,0,0,1-.272.646.883.883,0,0,1-.646.272H105.128a.882.882,0,0,1-.646-.272.883.883,0,0,1-.272-.646V-22.882a.883.883,0,0,1,.272-.646.882.882,0,0,1,.646-.272h21.148a.883.883,0,0,1,.646.272.883.883,0,0,1,.272.646v4.794a.883.883,0,0,1-.272.646.883.883,0,0,1-.646.272H113.05v2.142h11.356a.883.883,0,0,1,.646.272.883.883,0,0,1,.272.646v4.42a.883.883,0,0,1-.272.646.883.883,0,0,1-.646.272H113.05ZM158-1.054a.848.848,0,0,1,.068.374.651.651,0,0,1-.221.459.719.719,0,0,1-.527.221H149.6a1.453,1.453,0,0,1-1.428-.85L145.18-7.582h-2.856V-.918a.883.883,0,0,1-.272.646.883.883,0,0,1-.646.272h-7.344a.883.883,0,0,1-.646-.272.883.883,0,0,1-.272-.646V-22.882a.883.883,0,0,1,.272-.646.883.883,0,0,1,.646-.272h13.226a11.364,11.364,0,0,1,7.378,2.21,7.34,7.34,0,0,1,2.72,6.018,7.158,7.158,0,0,1-3.57,6.7ZM142.324-17.476v3.6h4.25a1.416,1.416,0,0,0,1.156-.493,1.881,1.881,0,0,0,.408-1.241,2.232,2.232,0,0,0-.391-1.309,1.335,1.335,0,0,0-1.173-.561Z" transform="translate(188 309)" fill="#fff"/></g></svg>